<svg width="16" height="16" viewBox="0 0 16 16" fill="none" xmlns="http://www.w3.org/2000/svg">
<path fill-rule="evenodd" clip-rule="evenodd" d="M15.5765 0.209209C15.8555 0.488153 15.8555 0.940416 15.5765 1.21936L14.6703 2.12549V4.60438C14.6703 4.93215 14.4473 5.21784 14.1293 5.29734L12.4396 5.71979V6.8489C12.4396 7.07043 12.6191 7.25 12.8406 7.25C14.4671 7.25 15.7857 8.56854 15.7857 10.1951C15.7857 11.8215 14.4671 13.1401 12.8406 13.1401H10.0659V13.5137C10.0659 14.4605 9.29842 15.228 8.35165 15.228H1.71429C0.767512 15.228 0 14.4605 0 13.5137V3.55768C0 1.97973 1.27919 0.700541 2.85714 0.700541H7.20879C8.78674 0.700541 10.0659 1.97973 10.0659 3.55768V11.7116H12.8406C13.6782 11.7116 14.3571 11.0326 14.3571 10.1951C14.3571 9.35753 13.6782 8.67858 12.8406 8.67858C11.8301 8.67858 11.011 7.8594 11.011 6.8489V5.17466C11.0108 5.16589 11.0108 5.15715 11.011 5.14843V4.06044C11.011 3.871 11.0862 3.68932 11.2202 3.55536L14.5663 0.209209C14.8453 -0.0697363 15.2975 -0.0697363 15.5765 0.209209ZM1.14286 7.39286V4.80615H8.92307V7.39286H1.14286ZM6.70606 10.0385C7.10055 10.0385 7.42034 10.3583 7.42034 10.7527V11.8681C7.42034 12.2627 7.10055 12.5824 6.70606 12.5824C6.31157 12.5824 5.99177 12.2627 5.99177 11.8681V10.7527C5.99177 10.3583 6.31157 10.0385 6.70606 10.0385Z" fill="#013972"/>
</svg>
